Cover :  http://www2.picturepush.com/photo/a/8963145/img/Quantum-Of-Solace-2008/Cover.jpg

General
Format                                   : Matroska
Format version                           : Version 2
File size                                : 3.74 GiB
Duration                                 : 1h 46mn
Overall bit rate                         : 5 044 Kbps
Movie name                               : Quantum Of Solace 2008 BluRay 720p Dual Audio[ENG+HIN]DTS x264 ~ Kishan(wall.e)


Video
ID                                       : 1
Format                                   : AVC
Format/Info                              : Advanced Video Codec
Format settings, ReFrames                : 6 frames
Codec ID                                 : V_MPEG4/ISO/AVC
Duration                                 : 1h 46mn
Bit rate                                 : 4 100 Kbps
Width                                    : 1 280 pixels
Height                                   : 528 pixels
Display aspect ratio                     : 2.40:1
Frame rate                               : 23.976 fps
Stream size                              : 2.97 GiB (79%)
Title                                    : Quantum Of Solace 2008 BluRay 720p DTS x264 Kishan(wall.e)
Language                                 : English

Audio #1
ID                                       : 2
Format                                   : DTS
Codec ID                                 : A_DTS
Duration                                 : 1h 46mn
Bit rate                                 : 755 Kbps
Channel(s)                               : 6 channels
Channel positions                        : Front: L C R, Side: L R, LFE
Sampling rate                            : 48.0 KHz
Bit depth                                : 24 bits
Stream size                              : 573 MiB (15%)
Title                                    : Kishan(wall.e)
Language                                 : English

Audio #2
ID                                       : 3
Format                                   : AC-3
Codec ID                                 : A_AC3
Duration                                 : 1h 46mn
Bit rate                                 : 192 Kbps
Channel(s)                               : 2 channels
Channel positions                        : Front: L R
Sampling rate                            : 48.0 KHz
Bit depth                                : 16 bits
Stream size                              : 146 MiB (4%)
Title                                    : Kishan(wall.e)
Language                                 : Hindi

Sample  :  
Screen Shots 
http://www5.picturepush.com/photo/a/8932088/1024/Quantum-Of-Solace-2008/1.png 
http://www1.picturepush.com/photo/a/8932089/1024/Quantum-Of-Solace-2008/2.png 
http://www2.picturepush.com/photo/a/8932090/1024/Quantum-Of-Solace-2008/3.png 
http://www4.picturepush.com/photo/a/8932092/1024/Quantum-Of-Solace-2008/4.png 
http://www3.picturepush.com/photo/a/8932096/1024/Quantum-Of-Solace-2008/5.png 
http://www3.picturepush.com/photo/a/8827866/img/casino-royal/Kishan%28wall.e%29.jpg

